<?xml version="1.0" encoding="UTF-8" standalone="no"?>
<svg
   width="59"
   height="30"
   viewBox="0 0 59 30"
   fill="none"
   version="1.1"
   id="svg212"
   xml:space="preserve"
   xmlns="http://www.w3.org/2000/svg"
   xmlns:svg="http://www.w3.org/2000/svg"><defs
     id="defs216" /><g
     id="g24167"
     style="fill:#1a1a1a"><path
       style="fill:#1a1a1a;fill-opacity:1;stroke:#000101;stroke-width:0.000889697;stroke-dasharray:none;stroke-opacity:1"
       d="m 0.9885528,19.724388 v -5.18992 l 0.4905367,-0.816927 c 2.0741803,-3.454284 5.3215763,-5.6079745 8.4558657,-5.6079745 1.8589708,0 3.4455628,0.661432 4.8948348,2.0406035 0.491463,0.467691 0.870392,0.873526 0.842064,0.901855 -0.02833,0.02833 -0.129629,-0.01718 -0.225111,-0.101128 -0.590686,-0.519343 -1.84536,-0.864852 -3.139261,-0.864481 -5.9469702,0.342145 -5.0037452,5.448988 -5.0424302,9.095211 l -0.05797,5.680476 -3.109262,0.0261 -3.1092631,0.0261 z"
       id="path16117" /><path
       style="fill:#1a1a1a;fill-opacity:1;stroke:#000101;stroke-width:0.000889697;stroke-dasharray:none;stroke-opacity:1"
       d="m 27.354016,29.441838 c -1.202081,-0.123447 -2.898694,-0.57215 -4.066728,-1.075526 -1.12781,-0.486041 -1.295959,-0.585054 -2.603254,-1.532905 -2.004463,-1.45333 -3.134599,-3.174732 -3.663072,-5.579521 -0.134468,-0.611887 -0.164754,-1.406323 -0.173358,-4.547343 -0.0057,-2.093261 -0.03316,-3.923365 -0.06095,-4.066898 C 16.674732,12.061627 15.728678,10.781643 14.729914,9.8569407 13.89901,9.0876507 12.556023,8.3774515 11.515355,8.1570161 7.8028523,7.3706293 3.8492957,9.522223 1.3352537,13.697204 l -0.3467009,0.575753 0.00172,-0.389605 c 0.00419,-0.950933 0.5336309,-2.753867 1.0723798,-3.65183 1.7833319,-2.9723803 4.83432,-4.5713606 9.2562794,-4.8510877 2.225473,-0.1407803 5.235547,0.3794166 7.068153,1.2215086 1.101739,0.5062545 2.899661,1.9633906 3.2962,2.6714238 0.06287,0.1122546 0.261941,0.4563548 0.442382,0.7646673 0.559993,0.956836 0.890461,3.59852 0.989739,7.911744 -0.28825,2.810724 0.781414,4.536432 2.420632,6.050495 1.023762,0.941477 2.516101,1.765213 4.245191,2.343248 1.341832,0.448575 2.52401,0.643971 3.896113,0.643971 3.044664,0 5.350821,-1.180644 6.936401,-3.551111 0.586381,-0.876649 1.192855,-2.193463 1.471548,-3.19512 l 0.157974,-0.567778 0.240077,0.353304 c 0.304813,0.448574 1.241248,1.056497 2.033545,1.320157 2.017872,0.671505 5.053973,0.673985 6.566035,0.0054 0.511012,-0.225968 1.013813,-0.651659 1.013813,-0.858336 0,-0.07138 0.04013,-0.129788 0.08919,-0.129788 0.311674,0 0.406693,-1.602641 0.146929,-2.478153 -0.333402,-1.123702 -1.28012,-2.567283 -2.201767,-3.357314 -0.36215,-0.310433 -0.414784,-0.391271 -0.255087,-0.391777 0.336199,-0.0011 2.441487,0.403906 2.8633,0.550783 0.217481,0.07573 0.490215,0.138335 0.606076,0.139127 0.292002,0.002 1.408033,0.427342 2.40075,0.914986 1.744256,0.856817 2.672519,2.273478 2.672519,4.078644 0,3.529452 -3.836813,6.077829 -9.573765,6.358812 -2.899113,0.141991 -4.956818,-0.09812 -7.093298,-0.827698 l -1.2999,-0.443901 -0.874916,0.86736 c -2.872844,2.848029 -7.290469,4.173303 -12.222742,3.666781 z"
       id="path16119" /><path
       style="fill:#1a1a1a;fill-opacity:1;stroke:#000101;stroke-width:0.000889697;stroke-dasharray:none;stroke-opacity:1"
       d="m 23.233097,17.447957 c -0.0034,-1.173613 -0.158848,-3.249851 -0.362637,-4.843908 -0.09036,-0.706816 -0.168541,-1.368764 -0.173733,-1.470997 -0.0074,-0.145156 0.196503,-0.268708 0.930586,-0.563954 2.56851,-1.033049 4.732042,-1.2720931 7.413245,-0.8190747 1.684773,0.2846607 2.816515,0.7129327 4.16051,1.5744117 0.376982,0.241639 0.707208,0.439344 0.733837,0.439344 0.02663,0 0.04842,-2.3354566 0.04842,-5.1899028 V 1.383974 h 3.121123 3.121123 l -0.02586,2.6053719 -0.02586,2.6053719 -0.846306,0.2720113 c -2.784017,0.8948119 -4.842983,2.7529693 -5.097001,4.5998939 -0.05733,0.416846 -0.09916,0.496932 -0.232698,0.445536 -0.08954,-0.03446 -0.58541,-0.175448 -1.101929,-0.313298 -1.287189,-0.343528 -3.031262,-0.421606 -4.114093,-0.18418 -0.948062,0.207876 -2.167991,0.762195 -3.071841,1.395801 -0.810199,0.567955 -3.231184,2.979844 -3.441166,3.428236 -0.0823,0.175748 -0.24523,0.469023 -0.36206,0.651721 -0.11683,0.182699 -0.315615,0.583063 -0.441744,0.889698 l -0.229327,0.557518 z"
       id="path16121" /><path
       style="fill:#1a1a1a;fill-opacity:1;stroke:#000101;stroke-width:0.000889697;stroke-dasharray:none;stroke-opacity:1"
       d="m 31.716165,26.733774 c -1.025397,-0.185544 -2.533478,-0.675766 -3.492983,-1.135444 -0.821467,-0.393547 -1.964761,-1.078089 -1.903273,-1.139577 0.01942,-0.01941 0.357471,0.07674 0.751235,0.213676 1.435453,0.499201 3.172719,0.509276 4.732701,0.02745 0.755163,-0.233245 1.56057,-0.601644 1.7969,-0.821913 0.08708,-0.08117 0.327938,-0.289235 0.535233,-0.462378 0.499306,-0.417044 1.187003,-1.392547 1.455692,-2.064908 0.269914,-0.675429 0.363748,-1.998318 0.198248,-2.794965 -0.396514,-1.908663 -1.918162,-3.501152 -4.007946,-4.194539 -0.704685,-0.233813 -0.947001,-0.263048 -2.224243,-0.268347 -1.238839,-0.0051 -1.5337,0.02554 -2.172323,0.226071 -0.856031,0.268791 -1.637183,0.641517 -1.954496,0.932587 -0.122119,0.112019 -0.244805,0.180901 -0.272635,0.15307 -0.0784,-0.07839 1.808868,-1.872816 2.524618,-2.400423 2.309233,-1.702223 4.679324,-2.046961 7.771478,-1.13039 l 0.70674,0.209491 0.06624,0.530188 c 0.154838,1.239287 1.264423,2.640289 2.767682,3.494576 0.809427,0.459989 2.495955,1.085648 2.919603,1.083098 0.135926,-7.91e-4 -0.153226,-0.122941 -0.64256,-0.271384 -2.334544,-0.708199 -3.862411,-1.820429 -4.622976,-3.365356 -0.285097,-0.579117 -0.319788,-0.741515 -0.319788,-1.497058 0,-0.781744 0.02867,-0.904583 0.369707,-1.583763 0.400943,-0.7984967 0.764616,-1.2318244 1.615391,-1.9247901 0.868609,-0.7074915 2.974045,-1.6814687 3.847364,-1.7797955 0.163111,-0.018365 0.719172,-0.1278187 1.235691,-0.2432313 1.193944,-0.2667787 4.838236,-0.3908411 6.136619,-0.2089085 2.64035,0.3699723 4.665869,1.2021461 6.353511,2.610307 0.75621,0.6309775 1.446078,1.6515394 1.80604,2.6717794 0.112636,0.319246 0.115606,0.413806 0.015,0.477662 -0.06899,0.04379 -1.496603,0.0803 -3.172471,0.08113 l -3.047033,0.0015 -0.363474,-0.410049 c -1.1319,-1.27694 -4.703706,-1.671589 -7.052271,-0.779204 -1.266045,0.481059 -1.45374,1.441399 -0.392488,2.008149 0.603897,0.322504 1.051672,0.417488 3.542044,0.751361 l 2.09551,0.280934 0.516955,0.432819 c 1.766825,1.47927 2.893571,3.917116 2.496,5.400388 -0.05335,0.199047 -0.08003,0.179548 -0.270503,-0.19771 -0.424251,-0.840289 -1.438914,-1.154655 -5.50007,-1.704045 -1.440816,-0.194913 -2.997787,-0.434586 -3.459935,-0.532608 l -0.84027,-0.178221 -0.05273,1.245307 c -0.04484,1.058753 -0.09995,1.381885 -0.367913,2.157002 -1.433543,4.146713 -4.248669,6.278238 -8.249736,6.246442 -0.613959,-0.0049 -1.457297,-0.07057 -1.874084,-0.145991 z"
       id="path16123" /></g></svg>
